<?xml version="1.0" encoding="utf-8"?>
<!-- Generator: Adobe Illustrator 26.0.3, SVG Export Plug-In . SVG Version: 6.00 Build 0)  -->
<svg version="1.1" id="Layer_1" xmlns="http://www.w3.org/2000/svg" xmlns:xlink="http://www.w3.org/1999/xlink" x="0px" y="0px"
	 viewBox="0 0 348.2 81.6" style="enable-background:new 0 0 348.2 81.6;" xml:space="preserve">
<g>
	<path d="M96.8,8.2C93.5,6,89.6,4.5,85.1,3.7c-4.5-0.8-9.2-1.3-14.3-1.3H0v76.8h25.5V59.4h45.3c5.1,0,9.9-0.3,14.3-0.8
		c4.5-0.6,8.3-1.7,11.7-3.5c3.3-1.8,5.9-4.4,7.9-8c1.9-3.6,2.9-8.5,2.9-14.6c0-6.2-1-11.2-2.9-15.1C102.7,13.4,100.1,10.3,96.8,8.2z
		 M79.9,37.3c-1.4,0.8-3.1,1.1-5.2,1.1H25.5v-12h49.3c2,0,3.8,0.4,5.2,1.1c1.4,0.7,2.1,2.4,2.1,4.9C82,34.9,81.3,36.5,79.9,37.3z"/>
	<path d="M214.7,4.6c-9-3.1-21-4.6-35.8-4.6c-14.8,0-26.8,1.5-35.8,4.6c-9,3.1-15.6,7.6-19.7,13.7c-4.1,6-6.2,13.5-6.2,22.5
		c0,9,2.1,16.5,6.2,22.5c4.1,6,10.7,10.6,19.7,13.7c9,3.1,21,4.6,35.8,4.6c14.8,0,26.8-1.5,35.8-4.6c9-3.1,15.6-7.6,19.7-13.7
		c4.1-6,6.2-13.5,6.2-22.5c0-9-2.1-16.5-6.2-22.5C230.3,12.3,223.8,7.7,214.7,4.6z M208.9,51.9c-2.8,2.6-6.7,4.4-11.8,5.4
		c-5.1,1-11.2,1.5-18.2,1.5c-7,0-13.1-0.5-18.4-1.5c-5.3-1-9.4-2.8-12.3-5.4c-3-2.6-4.4-6.3-4.4-11.1c0-4.8,1.5-8.5,4.4-11.1
		c3-2.6,7.1-4.4,12.3-5.4c5.3-1,11.4-1.5,18.4-1.5c7,0,13.1,0.5,18.2,1.5c5.1,1,9,2.8,11.8,5.4c2.8,2.6,4.2,6.3,4.2,11.1
		C213.1,45.6,211.7,49.3,208.9,51.9z"/>
	<polygon points="318.1,2.4 294.3,38.1 270.2,2.4 240.1,2.4 281.4,59.6 281.4,79.2 306.9,79.2 306.9,59.6 348.2,2.4 	"/>
</g>
</svg>
