<?xml version="1.0" encoding="utf-8"?>
<!-- Generator: Adobe Illustrator 26.0.3, SVG Export Plug-In . SVG Version: 6.00 Build 0)  -->
<svg version="1.1" id="Layer_1" xmlns="http://www.w3.org/2000/svg" xmlns:xlink="http://www.w3.org/1999/xlink" x="0px" y="0px"
	 viewBox="0 0 707.4 622.7" style="enable-background:new 0 0 707.4 622.7;" xml:space="preserve">
<g>
	<path d="M212,3c28.2,0,55.6,5.5,81.4,16.4c24.9,10.5,47.2,25.6,66.4,44.8c19.2,19.2,34.3,41.5,44.8,66.4
		c10.9,25.8,16.4,53.1,16.4,81.4s-5.5,55.6-16.4,81.4c-10.5,24.9-25.6,47.2-44.8,66.4c-19.2,19.2-41.5,34.3-66.4,44.8
		C267.6,415.5,240.2,421,212,421s-55.6-5.5-81.4-16.4c-24.9-10.5-47.2-25.6-66.4-44.8c-19.2-19.2-34.3-41.5-44.8-66.4
		C8.5,267.6,3,240.2,3,212s5.5-55.6,16.4-81.4C29.9,105.8,45,83.4,64.2,64.2s41.5-34.3,66.4-44.8C156.4,8.5,183.8,3,212,3 M212,0
		C94.9,0,0,94.9,0,212s94.9,212,212,212s212-94.9,212-212S329.1,0,212,0L212,0z"/>
</g>
<g>
	<path d="M568.7,222.6c36.3,0,70.3,14.1,96,39.8c25.6,25.6,39.8,59.7,39.8,96c0,36.3-14.1,70.3-39.8,96
		c-25.6,25.6-59.7,39.8-96,39.8c-36.3,0-70.3-14.1-96-39.8c-25.6-25.6-39.8-59.7-39.8-96c0-36.3,14.1-70.3,39.8-96
		S532.4,222.6,568.7,222.6 M568.7,219.6c-76.6,0-138.7,62.1-138.7,138.7S492,497,568.7,497s138.7-62.1,138.7-138.7
		S645.3,219.6,568.7,219.6L568.7,219.6z"/>
</g>
<g>
	<path d="M352.1,432.3c51.7,0,93.7,42,93.7,93.7s-42,93.7-93.7,93.7s-93.7-42-93.7-93.7S300.4,432.3,352.1,432.3 M352.1,429.3
		c-53.4,0-96.7,43.3-96.7,96.7s43.3,96.7,96.7,96.7s96.7-43.3,96.7-96.7S405.5,429.3,352.1,429.3L352.1,429.3z"/>
</g>
</svg>
